<?xml version="1.0" encoding="UTF-8" standalone="no"?>
<!-- Created with Inkscape (http://www.inkscape.org/) -->

<svg
   xmlns:dc="http://purl.org/dc/elements/1.1/"
   xmlns:cc="http://creativecommons.org/ns#"
   xmlns:rdf="http://www.w3.org/1999/02/22-rdf-syntax-ns#"
   xmlns:svg="http://www.w3.org/2000/svg"
   xmlns="http://www.w3.org/2000/svg"
   version="1.1"
   width="100%"
   height="100%"
   viewBox="0 0 285 313"
   id="svg2985">
  <path
     d="M 13,3.62732 C -1.24324,5.87323 3.14929,28.0641 16.9992,25.5656 30.8349,23.0696 26.0904,1.56317 13,3.62732 m 253.001,0.0401 C 253.024,7.41119 256.139,28.9814 270,25.412 283.589,21.9127 279.945,-0.355255 266.001,3.66742 M 33.0039,24.598 C 18.8533,27.6308 24.4384,49.6187 38,46.3874 51.8601,43.0849 45.947,21.824 33.0039,24.598 m 212.9971,0.0501 c -13.905,2.6353 -10.974,24.726 2.998,21.7539 13.667,-2.907 11.536,-24.5084 -2.998,-21.7539 M 53.0039,45.6674 C 39.5133,49.5921 45.9736,70.7783 58.9992,67.412 72.8921,63.8216 66.1927,41.8305 53.0039,45.6674 M 83,83 c -8.8138,0 -27.6537,-3.5435 -34.6057,2.6528 -5.3011,4.7248 -3.2326,13.9813 3.6211,15.9132 9.9169,2.796 32.0507,2.735 41.9838,0 4.0636,-1.118 6.8238,-4.5131 7.6568,-8.566 2.244,-10.9238 1.219,-25.8898 0.25,-37 C 101.55,51.9214 99.809,48.2099 95.9815,46.3217 90.9434,43.8364 84.9253,46.645 83.4336,52.0046 80.8866,61.1563 83,73.5113 83,83 m 118,0 c 0,-9.3651 4.863,-37.6219 -10,-37.6219 -4.497,0 -7.984,3.3259 -8.772,7.6227 -2.028,11.0585 -2.679,31.1055 0.09,41.9953 0.94,3.6962 4.013,6.1059 7.682,6.7759 10.954,2 23.863,0.286 35,0.227 4.671,-0.024 9.371,-0.405 11.82,-5.043 2.771,-5.2457 -0.298,-11.7704 -5.825,-13.3835 C 222.129,80.9848 210.207,83 201,83 m 24,-37.4128 c -13.515,3.5237 -10.076,25.3105 3.999,21.5687 13.27,-3.5277 9.929,-25.2 -3.999,-21.5687 M 36,122.638 c -4.7114,1.364 -8.5531,4.678 -10.1458,9.363 C 24.3746,136.353 25,141.474 25,146 c 0,11.659 -4.6173,34.448 9.0008,39.991 C 46.657,191.142 68.3692,187 82,187 l 112,0 36,0 c 5.367,0 12.056,1.048 16.996,-1.457 C 259.424,179.242 255,157.465 255,146 c 0,-4.557 0.612,-9.642 -0.97,-13.999 -1.741,-4.798 -5.164,-7.729 -10.03,-9.073 C 229.907,119.036 211.579,122 197,122 l -97,0 -43,0 c -6.6034,0 -14.6125,-1.211 -21,0.638 z"
     id="path2989"
     class="theme-app-logo-svg"
     style="fill:#050505;stroke:none" />
  <path
     d="m 170.004,144.653 c -9.221,2.93 -10.419,15.943 -0.999,19.605 11.668,4.535 31.487,0.742 43.995,0.742 4.972,0 11.285,0.998 15.957,-1.009 9.26,-3.979 6.699,-16.458 -1.958,-19.187 C 215.686,141.238 199.82,144 188,144 c -5.632,0 -12.575,-1.07 -17.996,0.653 z"
     id="path2991"
     style="fill:#fefefe;stroke:none;fill-opacity:0.5;" />
  <path
     d="m 201,228 c 8.78,0 25.407,3.183 32.786,-2.148 6.552,-4.733 4.341,-14.196 -2.79,-16.958 -9.121,-3.534 -32.691,-3.048 -41.992,-0.09 -12.032,3.826 -7.005,31.077 -7.004,41.196 0,4.807 -0.825,11.046 4.109,13.821 5.56,3.128 12.382,0.012 14.238,-5.825 C 203.119,249.279 201,237.111 201,228 m -118,0 c 0,8.449 -3.4458,26.814 1.7423,33.775 4.8086,6.453 14.6197,3.322 16.6847,-3.779 2.839,-9.757 2.999,-32.31 -0.08,-41.992 C 97.4965,203.893 69.1566,208.983 59,209 c -4.9251,0.008 -10.1261,0 -12.6782,5.044 -2.5839,5.107 0.582,11.231 5.6828,13.214 C 60.448,230.54 73.9846,228 83,228 m -29,15.576 c -13.8915,3.799 -9.5547,24.963 4.9992,20.99 C 72.019,261.012 67.2334,239.958 54,243.576 m 170.001,0.012 c -13.895,3.591 -7.207,25.39 5.995,21.593 13.523,-3.89 6.97,-24.944 -5.995,-21.593 M 33.0008,264.576 c -13.765,3.782 -9.1241,24.798 4.9984,20.99 12.998,-3.506 8.8049,-24.782 -4.9984,-20.99 m 211.0032,0.081 c -13.751,4.183 -5.677,25.347 6.995,21.27 13.9,-4.471 6.175,-25.277 -6.995,-21.27 M 12.0008,285.654 c -13.5744,4.206 -7.94292,25.941 5.9984,20.604 12.7895,-4.896 7.5331,-24.798 -5.9984,-20.604 m 253.0032,-0.078 c -14.056,3.894 -6.244,24.591 6.992,20.99 13.161,-3.581 5.964,-24.579 -6.992,-20.99 z"
     id="path2993"
     class="theme-app-logo-svg"
     style="fill:#050505;stroke:none" />
</svg>
